<mxfile modified="2023-03-15T22:24:25.132Z" host="Electron" agent="5.0 (Windows NT 10.0; Win64; x64) AppleWebKit/537.36 (KHTML, like Gecko) draw.io/20.3.0 Chrome/104.0.5112.114 Electron/20.1.3 Safari/537.36" etag="w3juGbcfO0qqB3OdgcKU" compressed="false" version="20.3.0" type="device">
  <diagram id="qgItL1kEyUzZ-dkZmqS6" name="Privacy/Database Encrypted Columns">
    <mxGraphModel dx="782" dy="517" grid="1" gridSize="10" guides="1" tooltips="1" connect="1" arrows="1" fold="1" page="1" pageScale="1" pageWidth="827" pageHeight="1169" math="0" shadow="0">
      <root>
        <mxCell id="zXfEy4EcUfmY3YmKH2Cf-0" />
        <mxCell id="zXfEy4EcUfmY3YmKH2Cf-1" value="Diagram" parent="zXfEy4EcUfmY3YmKH2Cf-0" />
        <mxCell id="zXfEy4EcUfmY3YmKH2Cf-29" value="&lt;font color=&quot;#000000&quot;&gt;backup &amp;amp; &lt;br&gt;restore&lt;/font&gt;" style="edgeStyle=none;rounded=0;orthogonalLoop=1;jettySize=auto;html=1;entryX=0.5;entryY=0;entryDx=0;entryDy=0;entryPerimeter=0;endArrow=classic;endFill=1;fontColor=#CC0000;" parent="zXfEy4EcUfmY3YmKH2Cf-1" source="zXfEy4EcUfmY3YmKH2Cf-3" target="zXfEy4EcUfmY3YmKH2Cf-28" edge="1">
          <mxGeometry x="0.4" relative="1" as="geometry">
            <mxPoint as="offset" />
          </mxGeometry>
        </mxCell>
        <mxCell id="zXfEy4EcUfmY3YmKH2Cf-3" value="PII Store" style="strokeWidth=2;html=1;shape=mxgraph.flowchart.database;whiteSpace=wrap;align=center;labelPosition=center;verticalLabelPosition=bottom;verticalAlign=top;labelBackgroundColor=#ffffff;fillColor=#ffe6cc;strokeColor=#d79b00;" parent="zXfEy4EcUfmY3YmKH2Cf-1" vertex="1">
          <mxGeometry x="120" y="540" width="40" height="40" as="geometry" />
        </mxCell>
        <mxCell id="zXfEy4EcUfmY3YmKH2Cf-12" value="backup &amp;amp;&lt;br&gt;restore" style="rounded=0;orthogonalLoop=1;jettySize=auto;html=1;entryX=0.5;entryY=0;entryDx=0;entryDy=0;entryPerimeter=0;endArrow=classic;endFill=1;exitX=0.5;exitY=1;exitDx=0;exitDy=0;exitPerimeter=0;" parent="zXfEy4EcUfmY3YmKH2Cf-1" source="zXfEy4EcUfmY3YmKH2Cf-4" target="zXfEy4EcUfmY3YmKH2Cf-8" edge="1">
          <mxGeometry x="0.4" relative="1" as="geometry">
            <mxPoint as="offset" />
          </mxGeometry>
        </mxCell>
        <mxCell id="zXfEy4EcUfmY3YmKH2Cf-13" value="clone" style="edgeStyle=none;rounded=0;orthogonalLoop=1;jettySize=auto;html=1;entryX=0;entryY=0.5;entryDx=0;entryDy=0;entryPerimeter=0;endArrow=classic;endFill=1;" parent="zXfEy4EcUfmY3YmKH2Cf-1" source="zXfEy4EcUfmY3YmKH2Cf-4" target="zXfEy4EcUfmY3YmKH2Cf-11" edge="1">
          <mxGeometry relative="1" as="geometry" />
        </mxCell>
        <mxCell id="zXfEy4EcUfmY3YmKH2Cf-14" value="Not&lt;br&gt;recommended&amp;nbsp;&lt;br&gt;design approach" style="edgeStyle=none;rounded=0;orthogonalLoop=1;jettySize=auto;html=1;entryX=0.5;entryY=0;entryDx=0;entryDy=0;entryPerimeter=0;endArrow=classic;endFill=1;fillColor=#f8cecc;strokeColor=#b85450;fontColor=#CC0000;opacity=75;textOpacity=75;" parent="zXfEy4EcUfmY3YmKH2Cf-1" source="zXfEy4EcUfmY3YmKH2Cf-4" target="zXfEy4EcUfmY3YmKH2Cf-9" edge="1">
          <mxGeometry x="0.25" relative="1" as="geometry">
            <mxPoint as="offset" />
          </mxGeometry>
        </mxCell>
        <mxCell id="zXfEy4EcUfmY3YmKH2Cf-4" value="Information&lt;br&gt;Store" style="strokeWidth=2;html=1;shape=mxgraph.flowchart.database;whiteSpace=wrap;align=center;labelPosition=center;verticalLabelPosition=bottom;verticalAlign=top;labelBackgroundColor=#ffffff;fillColor=#ffe6cc;strokeColor=#d79b00;" parent="zXfEy4EcUfmY3YmKH2Cf-1" vertex="1">
          <mxGeometry x="200" y="540" width="40" height="40" as="geometry" />
        </mxCell>
        <mxCell id="zXfEy4EcUfmY3YmKH2Cf-8" value="Backup&lt;br&gt;Store" style="strokeWidth=2;html=1;shape=mxgraph.flowchart.database;whiteSpace=wrap;align=center;labelPosition=center;verticalLabelPosition=bottom;verticalAlign=top;fillColor=#ffe6cc;strokeColor=#d79b00;" parent="zXfEy4EcUfmY3YmKH2Cf-1" vertex="1">
          <mxGeometry x="200" y="670" width="40" height="40" as="geometry" />
        </mxCell>
        <mxCell id="zXfEy4EcUfmY3YmKH2Cf-9" value="Archive Store" style="strokeWidth=2;html=1;shape=mxgraph.flowchart.database;whiteSpace=wrap;align=center;labelPosition=center;verticalLabelPosition=bottom;verticalAlign=top;fillColor=#f5f5f5;strokeColor=#666666;fontColor=#333333;" parent="zXfEy4EcUfmY3YmKH2Cf-1" vertex="1">
          <mxGeometry x="300" y="670" width="40" height="40" as="geometry" />
        </mxCell>
        <mxCell id="zXfEy4EcUfmY3YmKH2Cf-11" value="Reporting&lt;br&gt;Store" style="strokeWidth=2;html=1;shape=mxgraph.flowchart.database;whiteSpace=wrap;align=center;labelPosition=center;verticalLabelPosition=bottom;verticalAlign=top;fillColor=#ffe6cc;strokeColor=#d79b00;" parent="zXfEy4EcUfmY3YmKH2Cf-1" vertex="1">
          <mxGeometry x="300" y="540" width="40" height="40" as="geometry" />
        </mxCell>
        <mxCell id="zXfEy4EcUfmY3YmKH2Cf-18" value="unlock&amp;amp;&lt;br&gt;retrieve" style="edgeStyle=none;rounded=0;orthogonalLoop=1;jettySize=auto;html=1;entryX=0.5;entryY=0;entryDx=0;entryDy=0;entryPerimeter=0;endArrow=classic;endFill=1;exitX=0.25;exitY=1;exitDx=0;exitDy=0;" parent="zXfEy4EcUfmY3YmKH2Cf-1" source="zXfEy4EcUfmY3YmKH2Cf-15" target="zXfEy4EcUfmY3YmKH2Cf-3" edge="1">
          <mxGeometry x="-0.2" y="-13" relative="1" as="geometry">
            <mxPoint as="offset" />
          </mxGeometry>
        </mxCell>
        <mxCell id="zXfEy4EcUfmY3YmKH2Cf-19" value="retrieve using &lt;br&gt;service account" style="edgeStyle=none;rounded=0;orthogonalLoop=1;jettySize=auto;html=1;entryX=0.5;entryY=0;entryDx=0;entryDy=0;entryPerimeter=0;endArrow=classic;endFill=1;exitX=0.75;exitY=1;exitDx=0;exitDy=0;" parent="zXfEy4EcUfmY3YmKH2Cf-1" source="zXfEy4EcUfmY3YmKH2Cf-15" target="zXfEy4EcUfmY3YmKH2Cf-4" edge="1">
          <mxGeometry x="-0.2" y="13" relative="1" as="geometry">
            <mxPoint as="offset" />
          </mxGeometry>
        </mxCell>
        <mxCell id="zXfEy4EcUfmY3YmKH2Cf-57" style="edgeStyle=none;rounded=0;orthogonalLoop=1;jettySize=auto;html=1;entryX=0;entryY=0.5;entryDx=0;entryDy=0;endArrow=classic;endFill=1;fontColor=#000000;" parent="zXfEy4EcUfmY3YmKH2Cf-1" source="zXfEy4EcUfmY3YmKH2Cf-15" target="zXfEy4EcUfmY3YmKH2Cf-55" edge="1">
          <mxGeometry relative="1" as="geometry" />
        </mxCell>
        <mxCell id="zXfEy4EcUfmY3YmKH2Cf-15" value="Service" style="html=1;dropTarget=0;align=left;" parent="zXfEy4EcUfmY3YmKH2Cf-1" vertex="1">
          <mxGeometry x="140" y="460" width="80" height="40" as="geometry" />
        </mxCell>
        <mxCell id="zXfEy4EcUfmY3YmKH2Cf-16" value="" style="shape=component;jettyWidth=8;jettyHeight=4;" parent="zXfEy4EcUfmY3YmKH2Cf-15" vertex="1">
          <mxGeometry x="1" width="20" height="20" relative="1" as="geometry">
            <mxPoint x="-27" y="7" as="offset" />
          </mxGeometry>
        </mxCell>
        <mxCell id="zXfEy4EcUfmY3YmKH2Cf-22" style="edgeStyle=none;rounded=0;orthogonalLoop=1;jettySize=auto;html=1;entryX=0.5;entryY=0;entryDx=0;entryDy=0;entryPerimeter=0;endArrow=classic;endFill=1;" parent="zXfEy4EcUfmY3YmKH2Cf-1" source="zXfEy4EcUfmY3YmKH2Cf-20" target="zXfEy4EcUfmY3YmKH2Cf-11" edge="1">
          <mxGeometry relative="1" as="geometry" />
        </mxCell>
        <mxCell id="zXfEy4EcUfmY3YmKH2Cf-101" value="produce" style="edgeStyle=none;rounded=0;orthogonalLoop=1;jettySize=auto;html=1;entryX=0.5;entryY=1;entryDx=0;entryDy=0;entryPerimeter=0;endArrow=classic;endFill=1;fontSize=11;opacity=75;exitX=0.75;exitY=0;exitDx=0;exitDy=0;" parent="zXfEy4EcUfmY3YmKH2Cf-1" source="zXfEy4EcUfmY3YmKH2Cf-20" target="zXfEy4EcUfmY3YmKH2Cf-94" edge="1">
          <mxGeometry relative="1" as="geometry" />
        </mxCell>
        <mxCell id="zXfEy4EcUfmY3YmKH2Cf-20" value="Analytics&lt;br&gt;Service" style="html=1;dropTarget=0;align=left;" parent="zXfEy4EcUfmY3YmKH2Cf-1" vertex="1">
          <mxGeometry x="280" y="380" width="80" height="40" as="geometry" />
        </mxCell>
        <mxCell id="zXfEy4EcUfmY3YmKH2Cf-21" value="" style="shape=component;jettyWidth=8;jettyHeight=4;" parent="zXfEy4EcUfmY3YmKH2Cf-20" vertex="1">
          <mxGeometry x="1" width="20" height="20" relative="1" as="geometry">
            <mxPoint x="-27" y="7" as="offset" />
          </mxGeometry>
        </mxCell>
        <mxCell id="zXfEy4EcUfmY3YmKH2Cf-26" value="request" style="edgeStyle=none;rounded=0;orthogonalLoop=1;jettySize=auto;html=1;entryX=0.5;entryY=0;entryDx=0;entryDy=0;endArrow=classic;endFill=1;" parent="zXfEy4EcUfmY3YmKH2Cf-1" source="zXfEy4EcUfmY3YmKH2Cf-24" target="zXfEy4EcUfmY3YmKH2Cf-15" edge="1">
          <mxGeometry relative="1" as="geometry" />
        </mxCell>
        <mxCell id="zXfEy4EcUfmY3YmKH2Cf-27" value="redirect&lt;br&gt;to" style="edgeStyle=none;rounded=0;orthogonalLoop=1;jettySize=auto;html=1;entryX=0;entryY=0.5;entryDx=0;entryDy=0;endArrow=classic;endFill=1;" parent="zXfEy4EcUfmY3YmKH2Cf-1" source="zXfEy4EcUfmY3YmKH2Cf-24" target="zXfEy4EcUfmY3YmKH2Cf-20" edge="1">
          <mxGeometry relative="1" as="geometry" />
        </mxCell>
        <mxCell id="zXfEy4EcUfmY3YmKH2Cf-24" value="Client" style="html=1;dropTarget=0;align=left;" parent="zXfEy4EcUfmY3YmKH2Cf-1" vertex="1">
          <mxGeometry x="140" y="380" width="80" height="40" as="geometry" />
        </mxCell>
        <mxCell id="zXfEy4EcUfmY3YmKH2Cf-25" value="" style="shape=component;jettyWidth=8;jettyHeight=4;" parent="zXfEy4EcUfmY3YmKH2Cf-24" vertex="1">
          <mxGeometry x="1" width="20" height="20" relative="1" as="geometry">
            <mxPoint x="-27" y="7" as="offset" />
          </mxGeometry>
        </mxCell>
        <mxCell id="zXfEy4EcUfmY3YmKH2Cf-28" value="Backup&lt;br&gt;Store" style="strokeWidth=2;html=1;shape=mxgraph.flowchart.database;whiteSpace=wrap;align=center;labelPosition=center;verticalLabelPosition=bottom;verticalAlign=top;fillColor=#ffe6cc;strokeColor=#d79b00;" parent="zXfEy4EcUfmY3YmKH2Cf-1" vertex="1">
          <mxGeometry x="120" y="670" width="40" height="40" as="geometry" />
        </mxCell>
        <mxCell id="zXfEy4EcUfmY3YmKH2Cf-54" value="use" style="edgeStyle=none;rounded=0;orthogonalLoop=1;jettySize=auto;html=1;endArrow=classic;endFill=1;" parent="zXfEy4EcUfmY3YmKH2Cf-1" source="zXfEy4EcUfmY3YmKH2Cf-53" target="zXfEy4EcUfmY3YmKH2Cf-24" edge="1">
          <mxGeometry relative="1" as="geometry" />
        </mxCell>
        <mxCell id="zXfEy4EcUfmY3YmKH2Cf-87" value="use" style="edgeStyle=none;rounded=0;orthogonalLoop=1;jettySize=auto;html=1;entryX=0.5;entryY=0;entryDx=0;entryDy=0;endArrow=classic;endFill=1;fontColor=#000000;" parent="zXfEy4EcUfmY3YmKH2Cf-1" source="zXfEy4EcUfmY3YmKH2Cf-53" target="zXfEy4EcUfmY3YmKH2Cf-20" edge="1">
          <mxGeometry relative="1" as="geometry" />
        </mxCell>
        <mxCell id="zXfEy4EcUfmY3YmKH2Cf-100" value="access" style="edgeStyle=none;rounded=0;orthogonalLoop=1;jettySize=auto;html=1;entryX=0;entryY=0.5;entryDx=0;entryDy=0;entryPerimeter=0;endArrow=classic;endFill=1;fontSize=11;opacity=75;" parent="zXfEy4EcUfmY3YmKH2Cf-1" source="zXfEy4EcUfmY3YmKH2Cf-53" target="zXfEy4EcUfmY3YmKH2Cf-94" edge="1">
          <mxGeometry relative="1" as="geometry" />
        </mxCell>
        <mxCell id="zXfEy4EcUfmY3YmKH2Cf-53" value="" style="outlineConnect=0;fillColor=#dae8fc;strokeColor=#6c8ebf;dashed=0;verticalLabelPosition=bottom;verticalAlign=top;align=center;html=1;fontSize=12;fontStyle=0;aspect=fixed;pointerEvents=1;shape=mxgraph.aws4.user;labelBackgroundColor=#ffffff;" parent="zXfEy4EcUfmY3YmKH2Cf-1" vertex="1">
          <mxGeometry x="240" y="302" width="18" height="18" as="geometry" />
        </mxCell>
        <mxCell id="zXfEy4EcUfmY3YmKH2Cf-55" value="Secure &lt;br&gt;Key &lt;br&gt;Store" style="html=1;dropTarget=0;align=left;imageWidth=12;imageHeight=12;imageAspect=1;fillColor=#ffe6cc;strokeColor=#d79b00;" parent="zXfEy4EcUfmY3YmKH2Cf-1" vertex="1">
          <mxGeometry x="250" y="460" width="50" height="40" as="geometry" />
        </mxCell>
        <mxCell id="zXfEy4EcUfmY3YmKH2Cf-56" value="" style="shape=component;jettyWidth=8;jettyHeight=4;aspect=fixed;" parent="zXfEy4EcUfmY3YmKH2Cf-55" vertex="1">
          <mxGeometry x="1" width="15" height="15" relative="1" as="geometry">
            <mxPoint x="-6" y="-9" as="offset" />
          </mxGeometry>
        </mxCell>
        <mxCell id="zXfEy4EcUfmY3YmKH2Cf-60" value="backup &amp;amp;&lt;br&gt;restore" style="rounded=0;orthogonalLoop=1;jettySize=auto;html=1;entryX=0.5;entryY=0;entryDx=0;entryDy=0;entryPerimeter=0;endArrow=classic;endFill=1;exitX=0.5;exitY=1;exitDx=0;exitDy=0;exitPerimeter=0;" parent="zXfEy4EcUfmY3YmKH2Cf-1" source="zXfEy4EcUfmY3YmKH2Cf-63" target="zXfEy4EcUfmY3YmKH2Cf-64" edge="1">
          <mxGeometry x="0.5" relative="1" as="geometry">
            <mxPoint as="offset" />
          </mxGeometry>
        </mxCell>
        <mxCell id="zXfEy4EcUfmY3YmKH2Cf-61" value="clone" style="edgeStyle=none;rounded=0;orthogonalLoop=1;jettySize=auto;html=1;entryX=0;entryY=0.5;entryDx=0;entryDy=0;entryPerimeter=0;endArrow=classic;endFill=1;" parent="zXfEy4EcUfmY3YmKH2Cf-1" source="zXfEy4EcUfmY3YmKH2Cf-63" target="zXfEy4EcUfmY3YmKH2Cf-66" edge="1">
          <mxGeometry relative="1" as="geometry" />
        </mxCell>
        <mxCell id="zXfEy4EcUfmY3YmKH2Cf-63" value="Information&lt;br&gt;Store" style="strokeWidth=2;html=1;shape=mxgraph.flowchart.database;whiteSpace=wrap;align=center;labelPosition=center;verticalLabelPosition=bottom;verticalAlign=top;labelBackgroundColor=#ffffff;fillColor=#ffe6cc;strokeColor=#d79b00;" parent="zXfEy4EcUfmY3YmKH2Cf-1" vertex="1">
          <mxGeometry x="520" y="540" width="40" height="40" as="geometry" />
        </mxCell>
        <mxCell id="zXfEy4EcUfmY3YmKH2Cf-64" value="Backup&lt;br&gt;Store" style="strokeWidth=2;html=1;shape=mxgraph.flowchart.database;whiteSpace=wrap;align=center;labelPosition=center;verticalLabelPosition=bottom;verticalAlign=top;fillColor=#ffe6cc;strokeColor=#d79b00;" parent="zXfEy4EcUfmY3YmKH2Cf-1" vertex="1">
          <mxGeometry x="520" y="670" width="40" height="40" as="geometry" />
        </mxCell>
        <mxCell id="zXfEy4EcUfmY3YmKH2Cf-66" value="Reporting&lt;br&gt;Store" style="strokeWidth=2;html=1;shape=mxgraph.flowchart.database;whiteSpace=wrap;align=center;labelPosition=center;verticalLabelPosition=bottom;verticalAlign=top;fillColor=#ffe6cc;strokeColor=#d79b00;" parent="zXfEy4EcUfmY3YmKH2Cf-1" vertex="1">
          <mxGeometry x="620" y="540" width="40" height="40" as="geometry" />
        </mxCell>
        <mxCell id="zXfEy4EcUfmY3YmKH2Cf-68" value="retrieve" style="edgeStyle=none;rounded=0;orthogonalLoop=1;jettySize=auto;html=1;entryX=0.5;entryY=0;entryDx=0;entryDy=0;entryPerimeter=0;endArrow=classic;endFill=1;exitX=0.5;exitY=1;exitDx=0;exitDy=0;" parent="zXfEy4EcUfmY3YmKH2Cf-1" source="zXfEy4EcUfmY3YmKH2Cf-70" target="zXfEy4EcUfmY3YmKH2Cf-63" edge="1">
          <mxGeometry relative="1" as="geometry" />
        </mxCell>
        <mxCell id="zXfEy4EcUfmY3YmKH2Cf-69" style="edgeStyle=none;rounded=0;orthogonalLoop=1;jettySize=auto;html=1;entryX=0;entryY=0.5;entryDx=0;entryDy=0;endArrow=classic;endFill=1;fontColor=#000000;" parent="zXfEy4EcUfmY3YmKH2Cf-1" source="zXfEy4EcUfmY3YmKH2Cf-70" target="zXfEy4EcUfmY3YmKH2Cf-82" edge="1">
          <mxGeometry relative="1" as="geometry" />
        </mxCell>
        <mxCell id="zXfEy4EcUfmY3YmKH2Cf-70" value="Service" style="html=1;dropTarget=0;align=left;" parent="zXfEy4EcUfmY3YmKH2Cf-1" vertex="1">
          <mxGeometry x="460" y="460" width="80" height="40" as="geometry" />
        </mxCell>
        <mxCell id="zXfEy4EcUfmY3YmKH2Cf-71" value="" style="shape=component;jettyWidth=8;jettyHeight=4;" parent="zXfEy4EcUfmY3YmKH2Cf-70" vertex="1">
          <mxGeometry x="1" width="20" height="20" relative="1" as="geometry">
            <mxPoint x="-27" y="7" as="offset" />
          </mxGeometry>
        </mxCell>
        <mxCell id="zXfEy4EcUfmY3YmKH2Cf-72" style="edgeStyle=none;rounded=0;orthogonalLoop=1;jettySize=auto;html=1;entryX=0.5;entryY=0;entryDx=0;entryDy=0;entryPerimeter=0;endArrow=classic;endFill=1;" parent="zXfEy4EcUfmY3YmKH2Cf-1" source="zXfEy4EcUfmY3YmKH2Cf-73" target="zXfEy4EcUfmY3YmKH2Cf-66" edge="1">
          <mxGeometry relative="1" as="geometry" />
        </mxCell>
        <mxCell id="zXfEy4EcUfmY3YmKH2Cf-102" value="produce" style="edgeStyle=none;rounded=0;orthogonalLoop=1;jettySize=auto;html=1;entryX=0.5;entryY=1;entryDx=0;entryDy=0;entryPerimeter=0;endArrow=classic;endFill=1;fontSize=11;opacity=75;exitX=0.75;exitY=0;exitDx=0;exitDy=0;" parent="zXfEy4EcUfmY3YmKH2Cf-1" source="zXfEy4EcUfmY3YmKH2Cf-73" target="zXfEy4EcUfmY3YmKH2Cf-98" edge="1">
          <mxGeometry relative="1" as="geometry" />
        </mxCell>
        <mxCell id="zXfEy4EcUfmY3YmKH2Cf-73" value="Analytics&lt;br&gt;Service" style="html=1;dropTarget=0;align=left;" parent="zXfEy4EcUfmY3YmKH2Cf-1" vertex="1">
          <mxGeometry x="600" y="380" width="80" height="40" as="geometry" />
        </mxCell>
        <mxCell id="zXfEy4EcUfmY3YmKH2Cf-74" value="" style="shape=component;jettyWidth=8;jettyHeight=4;" parent="zXfEy4EcUfmY3YmKH2Cf-73" vertex="1">
          <mxGeometry x="1" width="20" height="20" relative="1" as="geometry">
            <mxPoint x="-27" y="7" as="offset" />
          </mxGeometry>
        </mxCell>
        <mxCell id="zXfEy4EcUfmY3YmKH2Cf-75" value="request" style="edgeStyle=none;rounded=0;orthogonalLoop=1;jettySize=auto;html=1;entryX=0.5;entryY=0;entryDx=0;entryDy=0;endArrow=classic;endFill=1;" parent="zXfEy4EcUfmY3YmKH2Cf-1" source="zXfEy4EcUfmY3YmKH2Cf-77" target="zXfEy4EcUfmY3YmKH2Cf-70" edge="1">
          <mxGeometry relative="1" as="geometry" />
        </mxCell>
        <mxCell id="zXfEy4EcUfmY3YmKH2Cf-76" value="redirect&lt;br&gt;to" style="edgeStyle=none;rounded=0;orthogonalLoop=1;jettySize=auto;html=1;entryX=0;entryY=0.5;entryDx=0;entryDy=0;endArrow=classic;endFill=1;" parent="zXfEy4EcUfmY3YmKH2Cf-1" source="zXfEy4EcUfmY3YmKH2Cf-77" target="zXfEy4EcUfmY3YmKH2Cf-73" edge="1">
          <mxGeometry relative="1" as="geometry" />
        </mxCell>
        <mxCell id="zXfEy4EcUfmY3YmKH2Cf-77" value="Client" style="html=1;dropTarget=0;align=left;" parent="zXfEy4EcUfmY3YmKH2Cf-1" vertex="1">
          <mxGeometry x="460" y="380" width="80" height="40" as="geometry" />
        </mxCell>
        <mxCell id="zXfEy4EcUfmY3YmKH2Cf-78" value="" style="shape=component;jettyWidth=8;jettyHeight=4;" parent="zXfEy4EcUfmY3YmKH2Cf-77" vertex="1">
          <mxGeometry x="1" width="20" height="20" relative="1" as="geometry">
            <mxPoint x="-27" y="7" as="offset" />
          </mxGeometry>
        </mxCell>
        <mxCell id="zXfEy4EcUfmY3YmKH2Cf-80" value="use" style="edgeStyle=none;rounded=0;orthogonalLoop=1;jettySize=auto;html=1;endArrow=classic;endFill=1;" parent="zXfEy4EcUfmY3YmKH2Cf-1" source="zXfEy4EcUfmY3YmKH2Cf-81" target="zXfEy4EcUfmY3YmKH2Cf-77" edge="1">
          <mxGeometry relative="1" as="geometry" />
        </mxCell>
        <mxCell id="zXfEy4EcUfmY3YmKH2Cf-88" value="use" style="edgeStyle=none;rounded=0;orthogonalLoop=1;jettySize=auto;html=1;entryX=0.5;entryY=0;entryDx=0;entryDy=0;endArrow=classic;endFill=1;fontColor=#000000;" parent="zXfEy4EcUfmY3YmKH2Cf-1" source="zXfEy4EcUfmY3YmKH2Cf-81" target="zXfEy4EcUfmY3YmKH2Cf-73" edge="1">
          <mxGeometry relative="1" as="geometry" />
        </mxCell>
        <mxCell id="zXfEy4EcUfmY3YmKH2Cf-99" value="access" style="edgeStyle=none;rounded=0;orthogonalLoop=1;jettySize=auto;html=1;entryX=0;entryY=0.5;entryDx=0;entryDy=0;entryPerimeter=0;endArrow=classic;endFill=1;fontSize=11;opacity=75;" parent="zXfEy4EcUfmY3YmKH2Cf-1" source="zXfEy4EcUfmY3YmKH2Cf-81" target="zXfEy4EcUfmY3YmKH2Cf-98" edge="1">
          <mxGeometry relative="1" as="geometry" />
        </mxCell>
        <mxCell id="zXfEy4EcUfmY3YmKH2Cf-81" value="" style="outlineConnect=0;fillColor=#dae8fc;strokeColor=#6c8ebf;dashed=0;verticalLabelPosition=bottom;verticalAlign=top;align=center;html=1;fontSize=12;fontStyle=0;aspect=fixed;pointerEvents=1;shape=mxgraph.aws4.user;labelBackgroundColor=#ffffff;" parent="zXfEy4EcUfmY3YmKH2Cf-1" vertex="1">
          <mxGeometry x="562" y="302" width="18" height="18" as="geometry" />
        </mxCell>
        <mxCell id="zXfEy4EcUfmY3YmKH2Cf-82" value="Secure &lt;br&gt;Key &lt;br&gt;Store" style="html=1;dropTarget=0;align=left;imageWidth=12;imageHeight=12;imageAspect=1;fillColor=#ffe6cc;strokeColor=#d79b00;" parent="zXfEy4EcUfmY3YmKH2Cf-1" vertex="1">
          <mxGeometry x="570" y="460" width="50" height="40" as="geometry" />
        </mxCell>
        <mxCell id="zXfEy4EcUfmY3YmKH2Cf-83" value="" style="shape=component;jettyWidth=8;jettyHeight=4;aspect=fixed;" parent="zXfEy4EcUfmY3YmKH2Cf-82" vertex="1">
          <mxGeometry x="1" width="15" height="15" relative="1" as="geometry">
            <mxPoint x="-8" y="-9" as="offset" />
          </mxGeometry>
        </mxCell>
        <mxCell id="zXfEy4EcUfmY3YmKH2Cf-85" value="" style="rounded=0;whiteSpace=wrap;html=1;labelBackgroundColor=#ffffff;align=left;fillColor=#ffe6cc;strokeColor=#d79b00;strokeWidth=2;" parent="zXfEy4EcUfmY3YmKH2Cf-1" vertex="1">
          <mxGeometry x="526" y="551" width="10" height="28" as="geometry" />
        </mxCell>
        <mxCell id="zXfEy4EcUfmY3YmKH2Cf-86" value="Use encrypted&lt;br&gt;columns" style="text;html=1;strokeColor=none;fillColor=none;align=center;verticalAlign=middle;whiteSpace=wrap;rounded=0;labelBackgroundColor=#ffffff;fontColor=#000000;" parent="zXfEy4EcUfmY3YmKH2Cf-1" vertex="1">
          <mxGeometry x="460" y="540" width="40" height="30" as="geometry" />
        </mxCell>
        <mxCell id="zXfEy4EcUfmY3YmKH2Cf-89" value="" style="rounded=0;whiteSpace=wrap;html=1;labelBackgroundColor=#ffffff;align=left;fillColor=#f8cecc;strokeColor=#b85450;strokeWidth=2;" parent="zXfEy4EcUfmY3YmKH2Cf-1" vertex="1">
          <mxGeometry x="626" y="551" width="10" height="28" as="geometry" />
        </mxCell>
        <mxCell id="zXfEy4EcUfmY3YmKH2Cf-90" value="Approach A: Physically Separated PI/PII" style="rounded=0;whiteSpace=wrap;html=1;labelBackgroundColor=none;fontColor=#333333;align=center;fillColor=#f5f5f5;strokeColor=none;fontStyle=1;fontSize=11;" parent="zXfEy4EcUfmY3YmKH2Cf-1" vertex="1">
          <mxGeometry x="120" y="240" width="240" height="20" as="geometry" />
        </mxCell>
        <mxCell id="zXfEy4EcUfmY3YmKH2Cf-91" value="&lt;font style=&quot;font-size: 11px&quot;&gt;Approach B: PI/PII in Encrypted Columns&lt;/font&gt;" style="rounded=0;whiteSpace=wrap;html=1;labelBackgroundColor=none;fontColor=#333333;align=center;fillColor=#f5f5f5;strokeColor=none;fontStyle=1" parent="zXfEy4EcUfmY3YmKH2Cf-1" vertex="1">
          <mxGeometry x="460" y="240" width="220" height="20" as="geometry" />
        </mxCell>
        <mxCell id="zXfEy4EcUfmY3YmKH2Cf-92" value="(Recommended)" style="text;html=1;strokeColor=none;fillColor=none;align=center;verticalAlign=middle;whiteSpace=wrap;rounded=0;labelBackgroundColor=none;fontSize=11;fontStyle=1;fontColor=#006600;" parent="zXfEy4EcUfmY3YmKH2Cf-1" vertex="1">
          <mxGeometry x="506" y="260" width="120" height="20" as="geometry" />
        </mxCell>
        <mxCell id="zXfEy4EcUfmY3YmKH2Cf-93" value="&lt;font color=&quot;#cc6600&quot;&gt;&lt;b&gt;(Acceptable)&lt;/b&gt;&lt;/font&gt;" style="text;html=1;strokeColor=none;fillColor=none;align=center;verticalAlign=middle;whiteSpace=wrap;rounded=0;labelBackgroundColor=none;fontSize=11;fontColor=#000000;" parent="zXfEy4EcUfmY3YmKH2Cf-1" vertex="1">
          <mxGeometry x="200" y="260" width="100" height="20" as="geometry" />
        </mxCell>
        <mxCell id="zXfEy4EcUfmY3YmKH2Cf-94" value="&lt;p style=&quot;line-height: 90%&quot;&gt;PII Safe Reports&lt;/p&gt;" style="shape=note;whiteSpace=wrap;html=1;backgroundOutline=1;darkOpacity=0.05;fontFamily=Helvetica;fontSize=11;fontColor=#006600;align=center;strokeColor=#000000;fillColor=#ffffff;size=10;spacingTop=-19;" parent="zXfEy4EcUfmY3YmKH2Cf-1" vertex="1">
          <mxGeometry x="320" y="286.5" width="40" height="50" as="geometry" />
        </mxCell>
        <mxCell id="zXfEy4EcUfmY3YmKH2Cf-95" value="" style="image;html=1;image=img/lib/clip_art/finance/Pie_Chart_128x128.png;labelBackgroundColor=none;fontSize=11;fontColor=#006600;align=center;" parent="zXfEy4EcUfmY3YmKH2Cf-1" vertex="1">
          <mxGeometry x="330" y="310" width="20" height="30" as="geometry" />
        </mxCell>
        <mxCell id="zXfEy4EcUfmY3YmKH2Cf-98" value="&lt;p style=&quot;line-height: 90%&quot;&gt;PII Safe Reports&lt;/p&gt;" style="shape=note;whiteSpace=wrap;html=1;backgroundOutline=1;darkOpacity=0.05;fontFamily=Helvetica;fontSize=11;fontColor=#006600;align=center;strokeColor=#000000;fillColor=#ffffff;size=10;spacingTop=-19;" parent="zXfEy4EcUfmY3YmKH2Cf-1" vertex="1">
          <mxGeometry x="640" y="285" width="40" height="53" as="geometry" />
        </mxCell>
        <mxCell id="zXfEy4EcUfmY3YmKH2Cf-97" value="" style="image;html=1;image=img/lib/clip_art/finance/Pie_Chart_128x128.png;labelBackgroundColor=none;fontSize=11;fontColor=#006600;align=center;" parent="zXfEy4EcUfmY3YmKH2Cf-1" vertex="1">
          <mxGeometry x="650" y="311" width="20" height="30" as="geometry" />
        </mxCell>
        <mxCell id="WoinEcw6dqHHLUW1FI1k-0" value="" style="rounded=0;whiteSpace=wrap;html=1;labelBackgroundColor=#ffffff;align=left;fillColor=#f8cecc;strokeColor=#b85450;strokeWidth=2;" parent="zXfEy4EcUfmY3YmKH2Cf-1" vertex="1">
          <mxGeometry x="527" y="681" width="10" height="28" as="geometry" />
        </mxCell>
        <mxCell id="WoinEcw6dqHHLUW1FI1k-2" value="Data &lt;br&gt;warehouse" style="html=1;dropTarget=0;align=left;" parent="zXfEy4EcUfmY3YmKH2Cf-1" vertex="1">
          <mxGeometry x="600" y="670" width="80" height="40" as="geometry" />
        </mxCell>
        <mxCell id="WoinEcw6dqHHLUW1FI1k-3" value="" style="shape=component;jettyWidth=8;jettyHeight=4;" parent="WoinEcw6dqHHLUW1FI1k-2" vertex="1">
          <mxGeometry x="1" width="20" height="20" relative="1" as="geometry">
            <mxPoint x="-27" y="7" as="offset" />
          </mxGeometry>
        </mxCell>
        <mxCell id="4e1rBxpCuPhVfSQy-2o3-8" value="" style="rounded=0;whiteSpace=wrap;html=1;labelBackgroundColor=#ffffff;align=left;fillColor=#f8cecc;strokeColor=#b85450;strokeWidth=2;opacity=50;" parent="zXfEy4EcUfmY3YmKH2Cf-1" vertex="1">
          <mxGeometry x="610" y="680" width="10" height="28" as="geometry" />
        </mxCell>
        <mxCell id="zXfEy4EcUfmY3YmKH2Cf-103" value="Title/Diagram" parent="zXfEy4EcUfmY3YmKH2Cf-0" visible="0" />
        <mxCell id="nlMRxaqpNdhrcBIJzoNx-0" value="&lt;font style=&quot;font-size: 12px&quot;&gt;&lt;span style=&quot;font-size: 12px&quot;&gt;Diagram: Base System Logical Module -&amp;nbsp;&lt;/span&gt;Privacy- PI/PII Persistence addressing Reporting requirements&lt;/font&gt;" style="text;strokeColor=none;fillColor=none;html=1;fontSize=24;fontStyle=2;verticalAlign=middle;align=left;shadow=0;glass=0;comic=0;opacity=30;fontColor=#808080;" parent="zXfEy4EcUfmY3YmKH2Cf-103" vertex="1">
          <mxGeometry x="120" y="780" width="520" height="20" as="geometry" />
        </mxCell>
        <mxCell id="nlMRxaqpNdhrcBIJzoNx-1" value="unlock&lt;br&gt;column" style="edgeStyle=none;rounded=0;orthogonalLoop=1;jettySize=auto;html=1;entryX=0.5;entryY=0;entryDx=0;entryDy=0;entryPerimeter=0;endArrow=classic;endFill=1;fontSize=11;fontColor=#000000;opacity=75;" parent="zXfEy4EcUfmY3YmKH2Cf-103" source="zXfEy4EcUfmY3YmKH2Cf-82" target="zXfEy4EcUfmY3YmKH2Cf-63" edge="1">
          <mxGeometry x="-0.2906" y="9" relative="1" as="geometry">
            <mxPoint as="offset" />
          </mxGeometry>
        </mxCell>
        <mxCell id="WoinEcw6dqHHLUW1FI1k-4" value="make available&lt;br&gt;(preferably via API&lt;br&gt;over SQL based ETL)" style="edgeStyle=none;rounded=0;orthogonalLoop=1;jettySize=auto;html=1;entryX=0.5;entryY=0;entryDx=0;entryDy=0;endArrow=classic;endFill=1;fontSize=11;opacity=75;fontColor=#666666;" parent="zXfEy4EcUfmY3YmKH2Cf-103" source="zXfEy4EcUfmY3YmKH2Cf-63" target="WoinEcw6dqHHLUW1FI1k-2" edge="1">
          <mxGeometry x="0.5244" y="13" relative="1" as="geometry">
            <mxPoint as="offset" />
          </mxGeometry>
        </mxCell>
        <mxCell id="4e1rBxpCuPhVfSQy-2o3-9" value="&lt;p style=&quot;line-height: 90%&quot;&gt;TBD: PI/PII either not exported, or tokenized first&lt;/p&gt;" style="text;html=1;strokeColor=none;fillColor=none;align=center;verticalAlign=middle;whiteSpace=wrap;rounded=0;labelBackgroundColor=none;fontSize=11;fontColor=#666666;opacity=50;" parent="zXfEy4EcUfmY3YmKH2Cf-103" vertex="1">
          <mxGeometry x="600" y="720" width="80" height="40" as="geometry" />
        </mxCell>
        <mxCell id="-LkZr81co36k5AVBrz_i-0" value="Context/Legend" parent="zXfEy4EcUfmY3YmKH2Cf-0" />
        <mxCell id="4e1rBxpCuPhVfSQy-2o3-0" value="" style="rounded=0;whiteSpace=wrap;html=1;fontSize=10;align=left;container=1;collapsible=0;fontColor=#B3B3B3;strokeColor=#B3B3B3;" parent="-LkZr81co36k5AVBrz_i-0" vertex="1">
          <mxGeometry x="440" y="180" width="240" height="50" as="geometry" />
        </mxCell>
        <mxCell id="4e1rBxpCuPhVfSQy-2o3-1" value="" style="whiteSpace=wrap;html=1;aspect=fixed;fillColor=#f5f5f5;strokeColor=#666666;fontSize=10;align=left;fontStyle=2;strokeWidth=1;fontColor=#333333;" parent="4e1rBxpCuPhVfSQy-2o3-0" vertex="1">
          <mxGeometry x="13.294460641399398" y="16.666666666666668" width="8.333333333333334" height="8.333333333333334" as="geometry" />
        </mxCell>
        <mxCell id="4e1rBxpCuPhVfSQy-2o3-2" value="" style="whiteSpace=wrap;html=1;aspect=fixed;fillColor=#ffe6cc;strokeColor=#d79b00;fontSize=10;align=left;fontStyle=2;strokeWidth=2;" parent="4e1rBxpCuPhVfSQy-2o3-0" vertex="1">
          <mxGeometry x="13.294460641399398" y="28" width="8.333333333333334" height="8.333333333333334" as="geometry" />
        </mxCell>
        <mxCell id="4e1rBxpCuPhVfSQy-2o3-3" value="" style="whiteSpace=wrap;html=1;aspect=fixed;fillColor=none;strokeColor=#6c8ebf;fontSize=10;align=left;fontStyle=2;strokeWidth=2;" parent="4e1rBxpCuPhVfSQy-2o3-0" vertex="1">
          <mxGeometry x="13.294460641399397" y="39.333333333333336" width="8.333333333333334" height="8.333333333333334" as="geometry" />
        </mxCell>
        <mxCell id="4e1rBxpCuPhVfSQy-2o3-4" value="Component" style="text;html=1;strokeColor=none;fillColor=none;align=left;verticalAlign=middle;whiteSpace=wrap;rounded=0;fontSize=10;fontStyle=2;fontColor=#B3B3B3;" parent="4e1rBxpCuPhVfSQy-2o3-0" vertex="1">
          <mxGeometry x="26.5945189504373" y="16.666666666666668" width="213.40548104956264" height="8.333333333333334" as="geometry" />
        </mxCell>
        <mxCell id="4e1rBxpCuPhVfSQy-2o3-5" value="Encrypted (accessible by service)" style="text;html=1;strokeColor=none;fillColor=none;align=left;verticalAlign=middle;whiteSpace=wrap;rounded=0;fontSize=10;fontStyle=2;fontColor=#B3B3B3;" parent="4e1rBxpCuPhVfSQy-2o3-0" vertex="1">
          <mxGeometry x="26.59" y="30" width="213.41" height="6.33" as="geometry" />
        </mxCell>
        <mxCell id="4e1rBxpCuPhVfSQy-2o3-6" value="Encrypted (not accessible)" style="text;html=1;strokeColor=none;fillColor=none;align=left;verticalAlign=middle;whiteSpace=wrap;rounded=0;fontSize=10;fontStyle=2;fontColor=#B3B3B3;" parent="4e1rBxpCuPhVfSQy-2o3-0" vertex="1">
          <mxGeometry x="26.5945189504373" y="39.333333333333336" width="213.40548104956264" height="8.333333333333334" as="geometry" />
        </mxCell>
        <mxCell id="4e1rBxpCuPhVfSQy-2o3-7" value="Legend" style="text;html=1;strokeColor=none;fillColor=none;align=center;verticalAlign=middle;whiteSpace=wrap;rounded=0;fontSize=10;fontStyle=5;fontColor=#B3B3B3;" parent="4e1rBxpCuPhVfSQy-2o3-0" vertex="1">
          <mxGeometry x="26.588921282798815" width="159.53352769679296" height="16.666666666666668" as="geometry" />
        </mxCell>
      </root>
    </mxGraphModel>
  </diagram>
</mxfile>
